<svg width="342" height="177" viewBox="0 0 342 177" fill="none" xmlns="http://www.w3.org/2000/svg">
<path opacity="0.8" d="M246.856 23.3011L247.054 23.6444L247.399 23.4494L248.942 22.5777L249.293 22.3791L249.091 22.0295L248.479 20.9693C249.155 20.3534 249.618 19.6335 249.817 18.8626C250.043 17.9907 249.923 17.0814 249.435 16.2354C248.812 15.1566 248.03 14.5984 247.174 14.3767C246.338 14.1603 245.479 14.2772 244.719 14.4493C244.415 14.5181 244.116 14.5984 243.838 14.6731C243.767 14.6922 243.698 14.7109 243.63 14.729C243.288 14.8197 242.987 14.8942 242.722 14.9323C242.454 14.9707 242.258 14.9663 242.117 14.926C241.993 14.8905 241.9 14.8254 241.826 14.6962C241.699 14.4773 241.692 14.2638 241.787 14.0505C241.887 13.8224 242.118 13.5673 242.515 13.3377C243.306 12.8809 244.151 13.0584 244.765 13.7477L245.088 14.1106L245.382 13.7236L246.648 12.057L246.848 11.7939L246.627 11.548C245.598 10.4007 243.993 10.0297 242.423 10.4792L241.798 9.39738L241.598 9.05097L241.252 9.25097L239.717 10.1367L239.371 10.3367L239.571 10.6831L240.186 11.7478C238.922 12.9461 238.427 14.6796 239.284 16.1638C239.853 17.1502 240.604 17.6351 241.432 17.8107C242.233 17.9805 243.076 17.853 243.828 17.6961C244.041 17.6516 244.244 17.6056 244.439 17.5616C244.964 17.4426 245.426 17.3381 245.84 17.3181C246.113 17.3049 246.326 17.3325 246.491 17.4002C246.647 17.464 246.78 17.5712 246.89 17.7609C247.038 18.0169 247.048 18.2896 246.931 18.5633C246.81 18.847 246.544 19.1459 246.12 19.3907C245.286 19.8721 244.152 19.6594 243.443 18.7056L243.155 18.3178L242.828 18.6735L241.47 20.1497L241.245 20.3951L241.445 20.6613C242.58 22.1664 244.476 22.7255 246.239 22.2322L246.856 23.3011Z" fill="#FF4D3C" stroke="#7B2820" stroke-width="0.8"/>
<path opacity="0.8" d="M196.215 23.1184L196.112 23.5012L196.494 23.6073L198.201 24.0814L198.59 24.1895L198.694 23.7996L199.011 22.617C199.925 22.6595 200.761 22.4777 201.447 22.0736C202.223 21.6166 202.782 20.8892 203.035 19.9457C203.357 18.7424 203.198 17.7944 202.75 17.0324C202.312 16.2887 201.622 15.7637 200.962 15.3477C200.699 15.1816 200.431 15.0271 200.182 14.8834C200.118 14.8467 200.056 14.8107 199.995 14.7754C199.689 14.598 199.424 14.4379 199.209 14.2773C198.992 14.115 198.857 13.9735 198.786 13.8452C198.723 13.7322 198.704 13.6207 198.742 13.4767C198.808 13.2325 198.954 13.0768 199.171 12.9925C199.404 12.9023 199.747 12.8849 200.191 13.0037C201.073 13.2401 201.545 13.9629 201.492 14.8846L201.464 15.3697L201.945 15.3039L204.019 15.0206L204.346 14.9759L204.364 14.6459C204.447 13.1068 203.575 11.7099 202.146 10.9169L202.47 9.71028L202.573 9.32391L202.187 9.22038L200.476 8.76191L200.089 8.65838L199.986 9.04475L199.668 10.2323C197.927 10.1861 196.351 11.0617 195.907 12.717C195.612 13.8173 195.8 14.6907 196.262 15.4006C196.708 16.0874 197.394 16.5931 198.037 17.0138C198.219 17.1329 198.395 17.2441 198.564 17.3506C199.02 17.6382 199.42 17.8908 199.727 18.1695C199.929 18.3531 200.06 18.5229 200.129 18.6876C200.194 18.8429 200.213 19.0132 200.156 19.2248C200.08 19.5103 199.894 19.7101 199.618 19.821C199.331 19.9359 198.932 19.9591 198.459 19.8324C197.529 19.5832 196.878 18.6315 197.051 17.4557L197.122 16.9776L196.639 16.9978L194.635 17.0817L194.302 17.0957L194.256 17.4258C193.994 19.2925 194.939 21.0286 196.534 21.9261L196.215 23.1184Z" fill="#FF4D3C" stroke="#7B2820" stroke-width="0.8"/>
<g opacity="0.5" filter="url(#filter0_dd_15_1581)">
<g clip-path="url(#clip0_15_1581)">
<rect x="29.5332" y="53.6155" width="282.936" height="114.483" rx="13.0838" fill="white"/>
<rect x="49.568" y="73.6498" width="73.5961" height="19.6256" rx="4.49754" fill="#F6F5F5" stroke="#DEDEDE" stroke-width="0.817734"/>
<rect x="266.267" y="76.103" width="26.1675" height="14.7192" rx="4.49754" fill="#F6F5F5" stroke="#DEDEDE" stroke-width="0.817734"/>
</g>
<rect x="29.9421" y="54.0243" width="282.118" height="113.665" rx="12.6749" stroke="#DEDEDE" stroke-width="0.817734"/>
</g>
<path opacity="0.8" d="M114.44 24.7754L114.118 25.0066L114.346 25.3306L116.48 28.3602L116.713 28.6902L117.041 28.4547L119.411 26.7526C120.846 28.1247 122.46 28.9776 124.105 29.2329C125.85 29.5037 127.603 29.097 129.173 27.9698C131.205 26.5102 132.132 24.8647 132.396 23.1653C132.657 21.4869 132.263 19.8037 131.754 18.2749C131.551 17.6662 131.326 17.0716 131.113 16.5089C131.058 16.3642 131.004 16.2216 130.951 16.0814C130.692 15.3893 130.466 14.7569 130.325 14.1852C130.183 13.6108 130.136 13.1329 130.207 12.7426C130.274 12.3696 130.45 12.0622 130.8 11.8114C131.343 11.4214 131.931 11.3411 132.526 11.5359C133.137 11.7356 133.785 12.2365 134.38 13.0653C135.628 14.8032 135.392 16.8272 133.959 18.3842L133.63 18.7418L134.045 18.996L137.776 21.2856L138.058 21.4585L138.28 21.2145C140.396 18.8995 140.788 15.5173 139.42 12.3824L141.824 10.6557L142.149 10.4224L141.916 10.0975L139.754 7.08776L139.521 6.76286L139.196 6.99619L136.822 8.70089C134.149 6.22419 130.518 5.53002 127.728 7.53378C125.89 8.85369 125.104 10.406 124.924 12.0398C124.747 13.6463 125.161 15.2987 125.642 16.8247C125.771 17.2368 125.905 17.6374 126.035 18.0263C126.396 19.1105 126.727 20.1035 126.861 21.0024C126.95 21.602 126.943 22.1208 126.811 22.5626C126.683 22.9946 126.429 23.3752 125.979 23.6978C125.358 24.1437 124.648 24.2358 123.932 24.0108C123.205 23.7825 122.456 23.2204 121.818 22.3318C120.5 20.4977 120.764 17.8489 122.75 16.0415L123.107 15.7162L122.721 15.4259L119.367 12.906L119.1 12.7058L118.855 12.9319C116.014 15.5534 115.314 19.5833 116.817 23.0679L114.44 24.7754Z" fill="#FF4D3C" stroke="#7B2820" stroke-width="0.8"/>
<path opacity="0.8" d="M36.4259 27.3776L36.2608 27.7379L36.6196 27.9063L39.0333 29.0392L39.3987 29.2107L39.5669 28.8437L40.4029 27.0192C41.7742 27.3454 43.0776 27.2973 44.1977 26.8701C45.4133 26.4064 46.3859 25.506 46.977 24.216C47.7381 22.5551 47.7346 21.1648 47.2821 19.9773C46.8371 18.8096 45.9744 17.8833 45.1072 17.1061C44.7615 16.7963 44.4067 16.5031 44.0728 16.2272C43.9872 16.1564 43.903 16.0868 43.8207 16.0184C43.4116 15.6783 43.0497 15.3672 42.7628 15.0655C42.474 14.7617 42.2867 14.4932 42.1992 14.2458C42.1177 14.0149 42.1179 13.7902 42.2341 13.5365C42.4196 13.1318 42.729 12.8954 43.1356 12.812C43.5581 12.7254 44.1167 12.7998 44.7702 13.0993C46.1164 13.7161 46.6705 15.009 46.3406 16.4466L46.232 16.9203L46.7177 16.9358L49.8661 17.0369L50.1964 17.0475L50.2691 16.7251C50.771 14.5015 49.8165 12.2338 47.863 10.7388L48.7127 8.88448L48.8793 8.52083L48.5157 8.35421L46.0918 7.24352L45.7281 7.07689L45.5615 7.44053L44.7235 9.26935C42.164 8.70653 39.6312 9.58178 38.5852 11.8645C37.8941 13.3726 37.9551 14.6562 38.4382 15.7716C38.9104 16.8617 39.7734 17.7604 40.6189 18.5442C40.8512 18.7595 41.0801 18.9646 41.3012 19.1627C41.9108 19.709 42.4608 20.2019 42.8582 20.7078C43.1221 21.0438 43.2923 21.3556 43.3624 21.6567C43.4302 21.948 43.4099 22.2511 43.2543 22.5907C43.0408 23.0567 42.66 23.3455 42.1643 23.4533C41.6579 23.5633 41.0142 23.4856 40.3149 23.1651C38.8948 22.5144 38.1343 20.8267 38.7153 19.0379L38.8645 18.5782L38.3851 18.5175L35.3904 18.1381L35.0597 18.0962L34.9589 18.414C34.1117 21.0843 35.0989 23.8693 37.2659 25.5444L36.4259 27.3776Z" fill="#FF4D3C" stroke="#7B2820" stroke-width="0.8"/>
<g opacity="0.75" filter="url(#filter1_dd_15_1581)">
<g clip-path="url(#clip1_15_1581)">
<rect x="18.082" y="34.8086" width="305.833" height="124.296" rx="13.0838" fill="white"/>
<rect x="38.1169" y="54.8432" width="73.5961" height="19.6256" rx="4.49754" fill="#F6F5F5" stroke="#DEDEDE" stroke-width="0.817734"/>
<rect x="277.713" y="57.2963" width="26.1675" height="14.7192" rx="4.49754" fill="#F6F5F5" stroke="#DEDEDE" stroke-width="0.817734"/>
<rect x="25.0329" y="88.3703" width="291.931" height="60.5123" rx="9.40394" fill="#F6F5F5" stroke="#DEDEDE" stroke-width="0.817734"/>
</g>
<rect x="18.4909" y="35.2175" width="305.015" height="123.478" rx="12.6749" stroke="#DEDEDE" stroke-width="0.817734"/>
</g>
<g filter="url(#filter2_dd_15_1581)">
<g clip-path="url(#clip2_15_1581)">
<rect x="5" y="16" width="332" height="134.108" rx="13.0838" fill="white"/>
<rect x="25.0348" y="36.0346" width="73.5961" height="19.6256" rx="4.49754" fill="#F6F5F5" stroke="#DEDEDE" stroke-width="0.817734"/>
<rect x="290.799" y="38.4877" width="26.1675" height="14.7192" rx="4.49754" fill="#F6F5F5" stroke="#DEDEDE" stroke-width="0.817734"/>
<rect x="25.0348" y="69.5617" width="291.931" height="60.5123" rx="9.40394" fill="#F6F5F5" stroke="#DEDEDE" stroke-width="0.817734"/>
</g>
<rect x="5.40887" y="16.4089" width="331.182" height="133.291" rx="12.6749" stroke="#DEDEDE" stroke-width="0.817734"/>
</g>
<g opacity="0.8" filter="url(#filter3_d_15_1581)">
<path d="M16.6406 28.8494L15.8913 26.6306C13.2091 27.0215 10.5912 25.7428 9.40905 23.2841L11.8493 21.5072C12.7305 23.3725 14.6415 24.1947 16.333 23.6234C17.9118 23.0902 18.7438 21.908 18.3301 20.6831C17.1514 17.1932 9.56007 21.9457 7.57744 16.0753C6.82029 13.8334 8.05482 11.5369 10.3727 10.2906L9.62338 8.07185L12.1495 7.21871L12.9066 9.46055C15.3476 9.0996 17.5769 10.0461 18.6924 11.9352L16.331 14.0201C15.5001 12.6013 14.0211 11.9422 12.4198 12.483C10.9538 12.9781 10.2554 13.9607 10.6223 15.0469C11.6136 17.9821 19.1798 13.0065 21.3966 19.5702C22.2396 22.0663 21.051 24.4245 18.4252 25.8006L19.1745 28.0193L16.6406 28.8494Z" fill="#FF4D3C"/>
<path d="M16.2617 28.9773L16.3885 29.3529L16.7652 29.2295L19.299 28.3995L19.6827 28.2738L19.5535 27.8913L18.9113 25.9899C20.1333 25.2873 21.0491 24.3587 21.5717 23.2798C22.1388 22.1089 22.2296 20.7865 21.7756 19.4422C21.191 17.7113 20.2353 16.7015 19.0918 16.1472C17.9673 15.6022 16.7042 15.5193 15.54 15.548C15.076 15.5594 14.6166 15.5892 14.1844 15.6172C14.0736 15.6244 13.9646 15.6315 13.8577 15.6381C13.3268 15.671 12.85 15.6926 12.4343 15.6696C12.0158 15.6464 11.6953 15.5794 11.4621 15.4592C11.2444 15.3471 11.0905 15.1833 11.0012 14.9189C10.8588 14.4971 10.9219 14.1129 11.1608 13.7735C11.409 13.4208 11.8667 13.092 12.5478 12.862C13.9507 12.3882 15.2404 12.9495 15.9859 14.2222L16.2315 14.6416L16.5958 14.3199L18.9571 12.235L19.2048 12.0163L19.0368 11.7318C17.8778 9.76888 15.6282 8.77229 13.1811 9.02316L12.5284 7.09072L12.4004 6.71175L12.0215 6.83974L9.49539 7.69288L9.11642 7.82087L9.24441 8.19984L9.8881 10.1057C7.6389 11.4507 6.39502 13.8243 7.19847 16.2033C7.72928 17.775 8.65364 18.6676 9.76999 19.1484C10.8611 19.6184 12.1056 19.681 13.2584 19.6719C13.5751 19.6694 13.8824 19.6618 14.1792 19.6545C14.9974 19.6342 15.7358 19.616 16.3719 19.7119C16.7943 19.7756 17.132 19.8859 17.3896 20.0571C17.6386 20.2226 17.8316 20.4572 17.9511 20.8111C18.1151 21.2967 18.036 21.768 17.7489 22.1863C17.4557 22.6136 16.9338 22.9983 16.205 23.2444C14.7251 23.7443 13.0144 23.0369 12.211 21.3364L12.0045 20.8994L11.6138 21.1839L9.1736 22.9607L8.90409 23.157L9.04855 23.4574C10.2625 25.9823 12.8904 27.333 15.6165 27.0669L16.2617 28.9773Z" stroke="#7B2820" stroke-width="0.8"/>
</g>
<g opacity="0.8" filter="url(#filter4_d_15_1581)">
<path d="M77.1206 27.7344L78.0218 25.5729C75.7486 24.0966 74.6256 21.4082 75.36 18.7807L78.366 19.0561C77.7972 21.0391 78.6903 22.9179 80.3382 23.605C81.8763 24.2463 83.2815 23.9071 83.779 22.7138C85.1966 19.3139 76.3567 17.8748 78.7411 12.1558C79.6517 9.9718 82.0948 9.06105 84.6588 9.65433L85.56 7.49282L88.0209 8.51887L87.1103 10.7029C89.1826 12.0426 90.2329 14.2249 89.8243 16.3803L86.6742 16.3885C86.9862 14.7742 86.31 13.3029 84.75 12.6525C83.3218 12.057 82.1486 12.3343 81.7074 13.3926C80.5152 16.2521 89.4835 17.5069 86.8174 23.9013C85.8036 26.333 83.3543 27.3205 80.4733 26.6215L79.5721 28.783L77.1206 27.7344Z" fill="#FF4D3C"/>
<path d="M76.7514 27.5805L76.5988 27.9463L76.9633 28.1022L79.4148 29.1508L79.786 29.3095L79.9413 28.9369L80.7136 27.0845C82.0954 27.363 83.3963 27.2697 84.5009 26.804C85.6997 26.2986 86.6406 25.3649 87.1866 24.0553C87.8897 22.369 87.8381 20.9796 87.3447 19.8085C86.8596 18.657 85.9653 17.7611 85.0716 17.0144C84.7155 16.7168 84.3506 16.436 84.0074 16.1718C83.9194 16.1041 83.8329 16.0375 83.7482 15.9719C83.3276 15.6462 82.9552 15.3478 82.658 15.0562C82.3588 14.7626 82.1623 14.5008 82.0663 14.2566C81.9768 14.0287 81.9692 13.8041 82.0766 13.5465C82.248 13.1356 82.549 12.8886 82.9524 12.7912C83.3717 12.69 83.9326 12.745 84.596 13.0217C85.9628 13.5915 86.5614 14.8644 86.2815 16.3126L86.1893 16.7897L86.6753 16.7885L89.8253 16.7803L90.1557 16.7795L90.2173 16.4548C90.6419 14.2152 89.6094 11.9818 87.6052 10.5554L88.3901 8.6728L88.5441 8.3036L88.1749 8.14967L85.714 7.12363L85.3448 6.9697L85.1908 7.33889L84.4167 9.19564C81.8392 8.72183 79.3382 9.68431 78.3719 12.0019C77.7336 13.5331 77.8389 14.8138 78.3604 15.9117C78.8701 16.9848 79.7638 17.8531 80.6359 18.6071C80.8755 18.8142 81.1114 19.0113 81.3392 19.2017C81.9673 19.7264 82.5341 20.2001 82.9488 20.6919C83.2241 21.0185 83.405 21.3242 83.4856 21.6228C83.5634 21.9114 83.5536 22.2151 83.4098 22.5599C83.2126 23.033 82.8421 23.3349 82.3504 23.4597C81.8481 23.5872 81.2021 23.5318 80.4921 23.2358C79.0503 22.6347 78.2319 20.9743 78.7505 19.1664L78.8837 18.7019L78.4025 18.6578L75.3965 18.3824L75.0645 18.352L74.9747 18.6731C74.2206 21.3712 75.3036 24.1202 77.5274 25.7193L76.7514 27.5805Z" stroke="#7B2820" stroke-width="0.8"/>
</g>
<g opacity="0.8" filter="url(#filter5_d_15_1581)">
<path d="M171.143 31.5954L172.12 28.491C168.789 26.7313 166.899 23.1504 167.588 19.4218L171.783 19.4277C171.243 22.2434 172.714 24.7326 175.081 25.4778C177.29 26.1735 179.192 25.5286 179.732 23.8147C181.27 18.9317 168.854 18.0434 171.441 9.82961C172.428 6.69286 175.696 5.12718 179.319 5.62826L180.297 2.52385L183.831 3.63681L182.844 6.77356C185.879 8.36923 187.606 11.2587 187.309 14.2933L182.95 14.6978C183.18 12.4244 182.06 10.4723 179.82 9.76681C177.769 9.12089 176.179 9.65126 175.701 11.1711C174.408 15.278 186.978 15.8952 184.086 25.079C182.986 28.5715 179.719 30.2441 175.644 29.6363L174.667 32.7407L171.143 31.5954Z" fill="#FF4D3C"/>
<path d="M170.761 31.4752L170.642 31.8533L171.019 31.9758L174.543 33.1211L174.927 33.2459L175.048 32.8608L175.925 30.0776C177.897 30.3149 179.699 30.0305 181.169 29.2484C182.728 28.4189 183.887 27.0424 184.468 25.1992C185.219 22.8126 184.975 20.9397 184.167 19.4212C183.37 17.9215 182.045 16.8105 180.721 15.8925C180.194 15.527 179.657 15.186 179.149 14.8633C179.019 14.7804 178.89 14.6986 178.764 14.6179C178.141 14.2197 177.581 13.8488 177.126 13.4758C176.668 13.1011 176.344 12.7466 176.166 12.392C175.996 12.0531 175.953 11.7014 176.082 11.2913C176.283 10.6535 176.706 10.2367 177.299 10.0356C177.908 9.82936 178.726 9.84186 179.7 10.1483C181.741 10.791 182.765 12.5524 182.552 14.6575L182.503 15.141L182.987 15.0961L187.346 14.6915L187.675 14.661L187.707 14.3322C188.012 11.2113 186.298 8.26909 183.324 6.58023L184.213 3.75695L184.333 3.37542L183.952 3.25528L180.417 2.14232L180.036 2.02217L179.915 2.40371L179.038 5.19113C175.413 4.81148 172.091 6.43302 171.059 9.70947C170.379 11.8677 170.681 13.5813 171.517 14.9967C172.339 16.3884 173.66 17.4628 174.96 18.3961C175.311 18.6481 175.658 18.8887 175.995 19.1222C176.934 19.7732 177.794 20.3695 178.44 21.0088C178.871 21.4353 179.176 21.8546 179.336 22.2871C179.492 22.71 179.517 23.167 179.351 23.6945C179.121 24.4238 178.608 24.9231 177.9 25.1725C177.181 25.4256 176.244 25.4249 175.201 25.0963C173.047 24.4181 171.67 22.1399 172.176 19.503L172.267 19.0283L171.783 19.0277L167.588 19.0218L167.255 19.0213L167.194 19.3491C166.492 23.1503 168.348 26.7956 171.64 28.6833L170.761 31.4752Z" stroke="#7B2820" stroke-width="0.8"/>
</g>
<g opacity="0.8" filter="url(#filter6_d_15_1581)">
<path d="M327.689 25.7413L326.569 23.8014C324.127 24.6724 321.431 23.9655 319.86 21.8819L321.814 19.7566C322.992 21.3401 324.938 21.7519 326.417 20.898C327.798 20.1011 328.356 18.8359 327.737 17.765C325.976 14.7137 319.75 20.5983 316.787 15.4656C315.655 13.5055 316.381 11.1196 318.32 9.51485L317.2 7.57495L319.409 6.29981L320.541 8.25991C322.762 7.46235 325.031 7.93076 326.432 9.49268L324.61 11.892C323.563 10.7177 322.053 10.3777 320.652 11.186C319.371 11.9261 318.9 12.9789 319.449 13.9286C320.93 16.4949 327.091 10.4057 330.404 16.1446C331.664 18.3269 330.993 20.7621 328.789 22.5464L329.909 24.4863L327.689 25.7413Z" fill="#FF4D3C"/>
<path d="M327.342 25.9413L327.54 26.2845L327.885 26.0895L330.106 24.8346L330.457 24.6359L330.255 24.2863L329.303 22.6362C330.313 21.7477 330.995 20.7051 331.283 19.595C331.595 18.3857 331.431 17.1238 330.75 15.9446C329.875 14.4276 328.785 13.657 327.603 13.3509C326.442 13.0502 325.238 13.2107 324.151 13.4568C323.718 13.5548 323.292 13.6693 322.892 13.7768C322.79 13.8044 322.689 13.8315 322.59 13.8578C322.098 13.9884 321.656 14.0981 321.263 14.1546C320.867 14.2114 320.557 14.2084 320.319 14.1406C320.098 14.0776 319.926 13.9557 319.795 13.7286C319.585 13.3646 319.572 12.9983 319.73 12.6401C319.895 12.267 320.259 11.875 320.852 11.5324C322.071 10.8288 323.377 11.1101 324.311 12.1581L324.634 12.521L324.928 12.134L326.751 9.73462L326.95 9.4715L326.73 9.22555C325.271 7.59996 322.973 7.08635 320.724 7.77738L319.755 6.09981L319.555 5.7534L319.209 5.9534L317 7.22854L316.654 7.42854L316.854 7.77495L317.809 9.4292C315.956 11.1172 315.236 13.5804 316.44 15.6656C317.236 17.0439 318.275 17.7104 319.417 17.9524C320.533 18.1888 321.715 18.0127 322.794 17.7874C323.092 17.7253 323.379 17.6602 323.656 17.5975C324.419 17.4248 325.106 17.2693 325.719 17.2397C326.126 17.2201 326.46 17.26 326.731 17.3708C326.992 17.4777 327.214 17.6588 327.391 17.965C327.633 18.3845 327.648 18.8356 327.459 19.2772C327.266 19.7288 326.852 20.1851 326.217 20.5516C324.932 21.2938 323.204 20.9554 322.135 19.518L321.847 19.1301L321.52 19.4858L319.566 21.6111L319.34 21.8565L319.541 22.1227C321.156 24.2648 323.875 25.0403 326.385 24.2829L327.342 25.9413Z" stroke="#7B2820" stroke-width="0.8"/>
</g>
<g opacity="0.8" filter="url(#filter7_d_15_1581)">
<path d="M278.258 22.4414L278.661 20.9385C277.034 20.167 276.057 18.4958 276.309 16.7009L278.313 16.6169C278.113 17.9729 278.867 19.1313 280.013 19.4383C281.082 19.7248 281.978 19.3775 282.2 18.5478C282.833 16.1839 276.885 16.0164 277.951 12.04C278.358 10.5215 279.886 9.70621 281.627 9.87062L282.029 8.36776L283.74 8.82623L283.334 10.3447C284.816 11.0441 285.701 12.3884 285.622 13.8438L283.548 14.1271C283.611 13.0366 283.036 12.1274 281.951 11.8368C280.958 11.5707 280.21 11.8569 280.013 12.5927C279.48 14.5808 285.497 14.6157 284.305 19.0616C283.852 20.7523 282.327 21.6187 280.368 21.4127L279.965 22.9155L278.258 22.4414Z" fill="#FF4D3C"/>
<path d="M277.872 22.3379L277.769 22.7207L278.151 22.8268L279.858 23.3009L280.247 23.409L280.352 23.019L280.668 21.8365C281.582 21.879 282.418 21.6972 283.104 21.2931C283.88 20.8361 284.439 20.1087 284.692 19.1652C285.014 17.9619 284.856 17.0139 284.407 16.2519C283.969 15.5082 283.279 14.9832 282.62 14.5672C282.356 14.4011 282.088 14.2466 281.839 14.1028C281.775 14.0662 281.713 14.0302 281.652 13.9949C281.346 13.8175 281.081 13.6574 280.866 13.4968C280.65 13.3345 280.514 13.193 280.443 13.0647C280.38 12.9517 280.361 12.8402 280.4 12.6962C280.465 12.452 280.611 12.2963 280.828 12.212C281.061 12.1218 281.404 12.1043 281.848 12.2232C282.73 12.4596 283.202 13.1824 283.149 14.1041L283.121 14.5892L283.602 14.5234L285.676 14.2401L286.003 14.1954L286.021 13.8654C286.104 12.3263 285.232 10.9293 283.804 10.1363L284.127 8.92976L284.23 8.54339L283.844 8.43986L282.133 7.98139L281.747 7.87786L281.643 8.26423L281.325 9.45182C279.584 9.40559 278.008 10.2811 277.564 11.9365C277.27 13.0367 277.457 13.9102 277.919 14.62C278.366 15.3069 279.052 15.8126 279.694 16.2332C279.876 16.3524 280.053 16.4636 280.221 16.5701C280.677 16.8576 281.077 17.1102 281.384 17.389C281.587 17.5725 281.718 17.7424 281.787 17.9071C281.852 18.0624 281.87 18.2327 281.813 18.4443C281.737 18.7298 281.551 18.9295 281.275 19.0404C280.989 19.1554 280.589 19.1786 280.116 19.0519C279.186 18.8027 278.535 17.851 278.708 16.6752L278.779 16.1971L278.296 16.2173L276.292 16.3012L275.959 16.3152L275.913 16.6453C275.651 18.512 276.596 20.2481 278.191 21.1456L277.872 22.3379Z" stroke="#7B2820" stroke-width="0.8"/>
</g>
<defs>
<filter id="filter0_dd_15_1581" x="25.4445" y="53.6155" width="291.114" height="122.66" filterUnits="userSpaceOnUse" color-interpolation-filters="sRGB">
<feFlood flood-opacity="0" result="BackgroundImageFix"/>
<feColorMatrix in="SourceAlpha" type="matrix" values="0 0 0 0 0 0 0 0 0 0 0 0 0 0 0 0 0 0 127 0" result="hardAlpha"/>
<feOffset dy="1.63547"/>
<feGaussianBlur stdDeviation="0.817734"/>
<feColorMatrix type="matrix" values="0 0 0 0 0.121569 0 0 0 0 0.156863 0 0 0 0 0.215686 0 0 0 0.02 0"/>
<feBlend mode="normal" in2="BackgroundImageFix" result="effect1_dropShadow_15_1581"/>
<feColorMatrix in="SourceAlpha" type="matrix" values="0 0 0 0 0 0 0 0 0 0 0 0 0 0 0 0 0 0 127 0" result="hardAlpha"/>
<feOffset dy="4.08867"/>
<feGaussianBlur stdDeviation="2.04434"/>
<feColorMatrix type="matrix" values="0 0 0 0 0.121569 0 0 0 0 0.156863 0 0 0 0 0.215686 0 0 0 0.02 0"/>
<feBlend mode="normal" in2="effect1_dropShadow_15_1581" result="effect2_dropShadow_15_1581"/>
<feBlend mode="normal" in="SourceGraphic" in2="effect2_dropShadow_15_1581" result="shape"/>
</filter>
<filter id="filter1_dd_15_1581" x="13.9934" y="34.8086" width="314.01" height="132.473" filterUnits="userSpaceOnUse" color-interpolation-filters="sRGB">
<feFlood flood-opacity="0" result="BackgroundImageFix"/>
<feColorMatrix in="SourceAlpha" type="matrix" values="0 0 0 0 0 0 0 0 0 0 0 0 0 0 0 0 0 0 127 0" result="hardAlpha"/>
<feOffset dy="1.63547"/>
<feGaussianBlur stdDeviation="0.817734"/>
<feColorMatrix type="matrix" values="0 0 0 0 0.121569 0 0 0 0 0.156863 0 0 0 0 0.215686 0 0 0 0.02 0"/>
<feBlend mode="normal" in2="BackgroundImageFix" result="effect1_dropShadow_15_1581"/>
<feColorMatrix in="SourceAlpha" type="matrix" values="0 0 0 0 0 0 0 0 0 0 0 0 0 0 0 0 0 0 127 0" result="hardAlpha"/>
<feOffset dy="4.08867"/>
<feGaussianBlur stdDeviation="2.04434"/>
<feColorMatrix type="matrix" values="0 0 0 0 0.121569 0 0 0 0 0.156863 0 0 0 0 0.215686 0 0 0 0.02 0"/>
<feBlend mode="normal" in2="effect1_dropShadow_15_1581" result="effect2_dropShadow_15_1581"/>
<feBlend mode="normal" in="SourceGraphic" in2="effect2_dropShadow_15_1581" result="shape"/>
</filter>
<filter id="filter2_dd_15_1581" x="0.911327" y="16" width="340.177" height="142.286" filterUnits="userSpaceOnUse" color-interpolation-filters="sRGB">
<feFlood flood-opacity="0" result="BackgroundImageFix"/>
<feColorMatrix in="SourceAlpha" type="matrix" values="0 0 0 0 0 0 0 0 0 0 0 0 0 0 0 0 0 0 127 0" result="hardAlpha"/>
<feOffset dy="1.63547"/>
<feGaussianBlur stdDeviation="0.817734"/>
<feColorMatrix type="matrix" values="0 0 0 0 0.121569 0 0 0 0 0.156863 0 0 0 0 0.215686 0 0 0 0.02 0"/>
<feBlend mode="normal" in2="BackgroundImageFix" result="effect1_dropShadow_15_1581"/>
<feColorMatrix in="SourceAlpha" type="matrix" values="0 0 0 0 0 0 0 0 0 0 0 0 0 0 0 0 0 0 127 0" result="hardAlpha"/>
<feOffset dy="4.08867"/>
<feGaussianBlur stdDeviation="2.04434"/>
<feColorMatrix type="matrix" values="0 0 0 0 0.121569 0 0 0 0 0.156863 0 0 0 0 0.215686 0 0 0 0.02 0"/>
<feBlend mode="normal" in2="effect1_dropShadow_15_1581" result="effect2_dropShadow_15_1581"/>
<feBlend mode="normal" in="SourceGraphic" in2="effect2_dropShadow_15_1581" result="shape"/>
</filter>
<filter id="filter3_d_15_1581" x="2.55176" y="6.20483" width="23.9131" height="31.6516" filterUnits="userSpaceOnUse" color-interpolation-filters="sRGB">
<feFlood flood-opacity="0" result="BackgroundImageFix"/>
<feColorMatrix in="SourceAlpha" type="matrix" values="0 0 0 0 0 0 0 0 0 0 0 0 0 0 0 0 0 0 127 0" result="hardAlpha"/>
<feOffset dy="4"/>
<feGaussianBlur stdDeviation="2"/>
<feComposite in2="hardAlpha" operator="out"/>
<feColorMatrix type="matrix" values="0 0 0 0 0 0 0 0 0 0 0 0 0 0 0 0 0 0 0.16 0"/>
<feBlend mode="normal" in2="BackgroundImageFix" result="effect1_dropShadow_15_1581"/>
<feBlend mode="normal" in="SourceGraphic" in2="effect1_dropShadow_15_1581" result="shape"/>
</filter>
<filter id="filter4_d_15_1581" x="70.3359" y="6.44653" width="24.376" height="31.3894" filterUnits="userSpaceOnUse" color-interpolation-filters="sRGB">
<feFlood flood-opacity="0" result="BackgroundImageFix"/>
<feColorMatrix in="SourceAlpha" type="matrix" values="0 0 0 0 0 0 0 0 0 0 0 0 0 0 0 0 0 0 127 0" result="hardAlpha"/>
<feOffset dy="4"/>
<feGaussianBlur stdDeviation="2"/>
<feComposite in2="hardAlpha" operator="out"/>
<feColorMatrix type="matrix" values="0 0 0 0 0 0 0 0 0 0 0 0 0 0 0 0 0 0 0.16 0"/>
<feBlend mode="normal" in2="BackgroundImageFix" result="effect1_dropShadow_15_1581"/>
<feBlend mode="normal" in="SourceGraphic" in2="effect1_dropShadow_15_1581" result="shape"/>
</filter>
<filter id="filter5_d_15_1581" x="162.646" y="1.52051" width="29.4961" height="40.2305" filterUnits="userSpaceOnUse" color-interpolation-filters="sRGB">
<feFlood flood-opacity="0" result="BackgroundImageFix"/>
<feColorMatrix in="SourceAlpha" type="matrix" values="0 0 0 0 0 0 0 0 0 0 0 0 0 0 0 0 0 0 127 0" result="hardAlpha"/>
<feOffset dy="4"/>
<feGaussianBlur stdDeviation="2"/>
<feComposite in2="hardAlpha" operator="out"/>
<feColorMatrix type="matrix" values="0 0 0 0 0 0 0 0 0 0 0 0 0 0 0 0 0 0 0.16 0"/>
<feBlend mode="normal" in2="BackgroundImageFix" result="effect1_dropShadow_15_1581"/>
<feBlend mode="normal" in="SourceGraphic" in2="effect1_dropShadow_15_1581" result="shape"/>
</filter>
<filter id="filter6_d_15_1581" x="311.446" y="5.20703" width="24.3887" height="29.6208" filterUnits="userSpaceOnUse" color-interpolation-filters="sRGB">
<feFlood flood-opacity="0" result="BackgroundImageFix"/>
<feColorMatrix in="SourceAlpha" type="matrix" values="0 0 0 0 0 0 0 0 0 0 0 0 0 0 0 0 0 0 127 0" result="hardAlpha"/>
<feOffset dy="4"/>
<feGaussianBlur stdDeviation="2"/>
<feComposite in2="hardAlpha" operator="out"/>
<feColorMatrix type="matrix" values="0 0 0 0 0 0 0 0 0 0 0 0 0 0 0 0 0 0 0.16 0"/>
<feBlend mode="normal" in2="BackgroundImageFix" result="effect1_dropShadow_15_1581"/>
<feBlend mode="normal" in="SourceGraphic" in2="effect1_dropShadow_15_1581" result="shape"/>
</filter>
<filter id="filter7_d_15_1581" x="271.47" y="7.38794" width="18.957" height="24.5144" filterUnits="userSpaceOnUse" color-interpolation-filters="sRGB">
<feFlood flood-opacity="0" result="BackgroundImageFix"/>
<feColorMatrix in="SourceAlpha" type="matrix" values="0 0 0 0 0 0 0 0 0 0 0 0 0 0 0 0 0 0 127 0" result="hardAlpha"/>
<feOffset dy="4"/>
<feGaussianBlur stdDeviation="2"/>
<feComposite in2="hardAlpha" operator="out"/>
<feColorMatrix type="matrix" values="0 0 0 0 0 0 0 0 0 0 0 0 0 0 0 0 0 0 0.16 0"/>
<feBlend mode="normal" in2="BackgroundImageFix" result="effect1_dropShadow_15_1581"/>
<feBlend mode="normal" in="SourceGraphic" in2="effect1_dropShadow_15_1581" result="shape"/>
</filter>
<clipPath id="clip0_15_1581">
<rect x="29.5332" y="53.6155" width="282.936" height="114.483" rx="13.0838" fill="white"/>
</clipPath>
<clipPath id="clip1_15_1581">
<rect x="18.082" y="34.8086" width="305.833" height="124.296" rx="13.0838" fill="white"/>
</clipPath>
<clipPath id="clip2_15_1581">
<rect x="5" y="16" width="332" height="134.108" rx="13.0838" fill="white"/>
</clipPath>
</defs>
</svg>
